<?xml version="1.0" encoding="UTF-8"?>
<!DOCTYPE svg PUBLIC "-//W3C//DTD SVG 1.1//EN" "http://www.w3.org/Graphics/SVG/1.1/DTD/svg11.dtd">
<!-- Creator: CorelDRAW X7 -->
<svg xmlns="http://www.w3.org/2000/svg" xml:space="preserve" width="169.647mm" height="169.629mm" version="1.1" style="shape-rendering:geometricPrecision; text-rendering:geometricPrecision; image-rendering:optimizeQuality; fill-rule:evenodd; clip-rule:evenodd"
viewBox="0 0 3100 3099"
 xmlns:xlink="http://www.w3.org/1999/xlink">
 <defs>
  <style type="text/css">
   <![CDATA[
    .fil2 {fill:#010101}
    .fil1 {fill:#4C4C4C}
    .fil0 {fill:#7E7E7E}
   ]]>
  </style>
 </defs>
 <g id="Layer_x0020_1">
  <metadata id="CorelCorpID_0Corel-Layer"/>
  <path class="fil0" d="M1656 1500c-15,35 -762,770 -826,834 -163,163 -52,91 -411,144l-205 615c58,-12 600,-193 619,-208 9,-82 18,-162 26,-243 8,-79 27,-74 116,-163 66,-66 793,-803 828,-824 50,23 115,171 227,61l992 -993c119,-118 13,-171 -127,-312 -141,-142 -193,-242 -310,-125 -324,327 -676,667 -993,993 -88,91 -10,157 64,221z"/>
  <path class="fil1" d="M759 15c100,89 320,317 430,426 81,80 66,21 -7,305 -13,51 -77,314 -96,335 -18,19 -420,119 -503,143 -103,29 -79,23 -139,-38l-433 -430c-33,153 13,343 67,468 45,107 146,246 234,313 245,187 490,251 796,172 37,-10 23,-1 49,5l219 -219c-31,-123 -50,-175 16,-294 55,-100 341,-334 348,-375 12,-66 -45,-246 -68,-301 -105,-253 -331,-434 -585,-498 -62,-15 -239,-38 -308,-20l-20 8z"/>
  <path class="fil1" d="M1816 1933l-223 225c144,156 411,412 573,574 49,49 93,93 142,142 46,46 92,103 145,145 121,94 297,108 444,28 260,-142 258,-516 62,-663l-507 -506c-34,-34 -107,-115 -146,-140 -131,89 -181,290 -490,195z"/>
  <path class="fil2" d="M2599 2475c-225,61 -131,393 92,334 77,-21 152,-107 121,-214 -23,-81 -103,-150 -213,-120z"/>
 </g>
</svg>
