<?xml version="1.0" encoding="UTF-8"?>
<!DOCTYPE svg PUBLIC "-//W3C//DTD SVG 1.1//EN" "http://www.w3.org/Graphics/SVG/1.1/DTD/svg11.dtd">
<!-- Creator: CorelDRAW X6 -->
<svg xmlns="http://www.w3.org/2000/svg" xml:space="preserve" width="23.4274mm" height="23.4248mm" version="1.1" style="shape-rendering:geometricPrecision; text-rendering:geometricPrecision; image-rendering:optimizeQuality; fill-rule:evenodd; clip-rule:evenodd"
viewBox="0 0 12871 12870"
 xmlns:xlink="http://www.w3.org/1999/xlink">
 <defs>
  <style type="text/css">
   <![CDATA[
    .fil0 {fill:red}
   ]]>
  </style>
 </defs>
 <g id="Capa_x0020_1">
  <metadata id="CorelCorpID_0Corel-Layer"/>
  <path class="fil0" d="M11 1784l16 420c91,236 174,249 277,406l96 96 369 369 96 96 369 369 96 96 369 369 96 96 369 369 96 96 369 369 96 96 369 369 96 96 369 369 96 96 369 369 93 104c-170,274 -3246,3223 -3872,3904 -58,63 -73,85 -125,152l-118 140 -2 504c92,95 105,132 156,253 83,38 91,48 173,130 30,30 43,43 66,73 67,88 35,35 62,105 159,86 75,2 161,161 68,26 8,-8 79,43l225 261c159,86 75,2 161,161 118,44 262,192 304,304 143,75 79,17 172,149l226 83c280,21 429,-19 651,-97l3989 -4018c164,91 300,235 392,378l96 96 369 369 96 96 369 369 96 96 333 317 131 150 370 368 96 96 369 369 96 96 369 369 96 96 369 369 96 96 359 324c249,77 279,80 560,60 392,-186 674,-552 947,-825 260,-260 654,-576 825,-947 22,-280 20,-312 -61,-559l-282 -312 -186 -186 -279 -279 -186 -186 -279 -279 -186 -186 -279 -279 -186 -186 -279 -279 -186 -186 -279 -279 -186 -186 -279 -279 -186 -186 -279 -279 -186 -186 -316 -338c156,-245 3915,-3971 4003,-4001 79,-223 119,-371 98,-651l-84 -225c-129,-95 -72,-29 -144,-175 -95,-39 -86,-38 -177,-129 -31,-31 -57,-60 -84,-98 -49,-68 -19,-16 -45,-79l-159 -159c-95,-39 -86,-38 -177,-129 -91,-91 -90,-82 -129,-177l-159 -159c-100,-41 -82,-36 -177,-130 -76,-75 -98,-98 -136,-168 -118,-51 -4,14 -138,-67 -121,-73 -51,-29 -115,-89l-500 2c-52,52 -13,15 -85,75 -858,707 -3776,3837 -4120,4047l-144 -141 -279 -279 -186 -186 -279 -279 -186 -186 -279 -279 -186 -186 -284 -277 -184 -184 -278 -282 -187 -183 -277 -283 -186 -186 -279 -279 -186 -186 -279 -279 -186 -186c-124,-96 -171,-162 -358,-235l-420 -15c-411,195 -668,538 -951,821 -271,271 -641,556 -822,951z"/>
 </g>
</svg>
