<?xml version="1.0" encoding="UTF-8"?>
<!DOCTYPE svg PUBLIC "-//W3C//DTD SVG 1.1//EN" "http://www.w3.org/Graphics/SVG/1.1/DTD/svg11.dtd">
<!-- Creator: CorelDRAW X6 -->
<svg xmlns="http://www.w3.org/2000/svg" xml:space="preserve" width="23.4274mm" height="23.4248mm" version="1.1" style="shape-rendering:geometricPrecision; text-rendering:geometricPrecision; image-rendering:optimizeQuality; fill-rule:evenodd; clip-rule:evenodd"
viewBox="0 0 816 816"
 xmlns:xlink="http://www.w3.org/1999/xlink">
 <defs>
  <style type="text/css">
   <![CDATA[
    .fil0 {fill:#A8A6A6}
   ]]>
  </style>
 </defs>
 <g id="Capa_x0020_1">
  <metadata id="CorelCorpID_0Corel-Layer"/>
  <path class="fil0" d="M1 113l1 27c6,15 11,16 18,26l6 6 23 23 6 6 23 23 6 6 23 23 6 6 23 23 6 6 23 23 6 6 23 23 6 6 23 23 6 6 23 23 6 7c-11,17 -206,204 -245,247 -4,4 -5,5 -8,10l-7 9 0 32c6,6 7,8 10,16 5,2 6,3 11,8 2,2 3,3 4,5 4,6 2,2 4,7 10,5 5,0 10,10 4,2 0,0 5,3l14 17c10,5 5,0 10,10 7,3 17,12 19,19 9,5 5,1 11,9l14 5c18,1 27,-1 41,-6l253 -255c10,6 19,15 25,24l6 6 23 23 6 6 23 23 6 6 21 20 8 10 23 23 6 6 23 23 6 6 23 23 6 6 23 23 6 6 23 21c16,5 18,5 35,4 25,-12 43,-35 60,-52 16,-17 41,-36 52,-60 1,-18 1,-20 -4,-35l-18 -20 -12 -12 -18 -18 -12 -12 -18 -18 -12 -12 -18 -18 -12 -12 -18 -18 -12 -12 -18 -18 -12 -12 -18 -18 -12 -12 -18 -18 -12 -12 -20 -21c10,-16 248,-252 254,-254 5,-14 8,-23 6,-41l-5 -14c-8,-6 -5,-2 -9,-11 -6,-2 -5,-2 -11,-8 -2,-2 -4,-4 -5,-6 -3,-4 -1,-1 -3,-5l-10 -10c-6,-2 -5,-2 -11,-8 -6,-6 -6,-5 -8,-11l-10 -10c-6,-3 -5,-2 -11,-8 -5,-5 -6,-6 -9,-11 -7,-3 0,1 -9,-4 -8,-5 -3,-2 -7,-6l-32 0c-3,3 -1,1 -5,5 -54,45 -239,243 -261,256l-9 -9 -18 -18 -12 -12 -18 -18 -12 -12 -18 -18 -12 -12 -18 -18 -12 -12 -18 -18 -12 -12 -18 -18 -12 -12 -18 -18 -12 -12 -18 -18 -12 -12c-8,-6 -11,-10 -23,-15l-27 -1c-26,12 -42,34 -60,52 -17,17 -41,35 -52,60z"/>
 </g>
</svg>
