<?xml version="1.0" encoding="UTF-8"?>
<!DOCTYPE svg PUBLIC "-//W3C//DTD SVG 1.1//EN" "http://www.w3.org/Graphics/SVG/1.1/DTD/svg11.dtd">
<!-- Creator: CorelDRAW X7 -->
<svg xmlns="http://www.w3.org/2000/svg" xml:space="preserve" width="136.669mm" height="136.669mm" version="1.1" style="shape-rendering:geometricPrecision; text-rendering:geometricPrecision; image-rendering:optimizeQuality; fill-rule:evenodd; clip-rule:evenodd"
viewBox="0 0 14197 14197"
 xmlns:xlink="http://www.w3.org/1999/xlink">
 <defs>
  <style type="text/css">
   <![CDATA[
    .fil0 {fill:black}
   ]]>
  </style>
 </defs>
 <g id="Layer_x0020_1">
  <metadata id="CorelCorpID_0Corel-Layer"/>
  <path class="fil0" d="M1466 5921c0,-1338 241,-2265 1216,-3239 1260,-1260 3188,-1599 4763,-806 1286,646 2345,2042 2345,3459 0,1337 -242,2264 -1217,3238 -1260,1261 -3188,1599 -4763,807 -891,-449 -1486,-1043 -1934,-1935 -198,-392 -410,-940 -410,-1524zm3708 -5921l917 0c1286,102 2548,637 3537,1627 1263,1262 1627,2516 1627,4294 0,2053 -1405,3969 -3203,4827 -2072,988 -4734,572 -6425,-1120 -1263,-1262 -1627,-2516 -1627,-4293 0,-828 255,-1616 526,-2171 948,-1937 2761,-3014 4648,-3164z"/>
  <path class="fil0" d="M9145 11079c71,266 1779,1867 2008,2096 356,356 -141,-141 215,216 671,670 621,806 1598,806 613,0 1231,-618 1231,-1231 0,-977 -136,-927 -806,-1598l-1740 -1740c-175,-175 -318,-415 -572,-483 -51,193 -64,141 -174,295l-426 511c-351,396 23,66 -496,501 -264,221 -82,131 -509,429 -172,119 -145,149 -329,198z"/>
 </g>
</svg>
