<?xml version="1.0" encoding="UTF-8"?>
<!DOCTYPE svg PUBLIC "-//W3C//DTD SVG 1.1//EN" "http://www.w3.org/Graphics/SVG/1.1/DTD/svg11.dtd">
<!-- Creator: CorelDRAW X7 -->
<svg xmlns="http://www.w3.org/2000/svg" xml:space="preserve" width="40.7867mm" height="51.012mm" version="1.1" style="shape-rendering:geometricPrecision; text-rendering:geometricPrecision; image-rendering:optimizeQuality; fill-rule:evenodd; clip-rule:evenodd"
viewBox="0 0 382 477"
 xmlns:xlink="http://www.w3.org/1999/xlink">
 <defs>
  <style type="text/css">
   <![CDATA[
    .str1 {stroke:black;stroke-width:7.01597}
    .str0 {stroke:black;stroke-width:7.01597;stroke-linecap:round;stroke-linejoin:round}
    .fil3 {fill:none}
    .fil1 {fill:black;fill-rule:nonzero}
    .fil0 {fill:black;fill-rule:nonzero}
    .fil2 {fill:white;fill-rule:nonzero}
   ]]>
  </style>
 </defs>
 <g id="Layer_x0020_1">
  <metadata id="CorelCorpID_0Corel-Layer"/>
  <path class="fil0 str0" d="M219 307l37 -23c5,-3 18,-3 19,-2l102 147c2,2 1,5 -3,8l-53 35c-3,2 -7,2 -9,0l-101 -148c-1,-3 4,-15 8,-17z"/>
  <ellipse class="fil1 str1" transform="matrix(1.3992 0.202453 -0.202453 1.3992 155.307 151.749)" rx="107" ry="105"/>
  <ellipse class="fil2 str1" cx="155" cy="152" rx="107" ry="105"/>
  <rect class="fil1 str1" transform="matrix(0.814448 -0.461599 0.461599 0.814448 213.463 290.873)" width="42.2549" height="20.8674"/>
  <path class="fil3 str1" d="M220 309c19,-1 33,-9 41,-22"/>
  <path class="fil0" d="M89 91c-11,9 -26,26 -26,59 0,32 19,68 26,58 7,-10 -5,-30 -1,-63 4,-33 11,-63 1,-54z"/>
 </g>
</svg>
