<?xml version="1.0" encoding="UTF-8"?>
<!DOCTYPE svg PUBLIC "-//W3C//DTD SVG 1.1//EN" "http://www.w3.org/Graphics/SVG/1.1/DTD/svg11.dtd">
<!-- Creator: CorelDRAW X7 -->
<svg xmlns="http://www.w3.org/2000/svg" xml:space="preserve" width="94.4466mm" height="94.4466mm" version="1.1" style="shape-rendering:geometricPrecision; text-rendering:geometricPrecision; image-rendering:optimizeQuality; fill-rule:evenodd; clip-rule:evenodd"
viewBox="0 0 1414 1414"
 xmlns:xlink="http://www.w3.org/1999/xlink">
 <defs>
  <style type="text/css">
   <![CDATA[
    .str0 {stroke:black;stroke-width:149.664}
    .fil0 {fill:black}
   ]]>
  </style>
 </defs>
 <g id="Layer_x0020_1">
  <metadata id="CorelCorpID_0Corel-Layer"/>
  <path class="fil0 str0" d="M601 167l0 434 -434 0c-55,0 -92,50 -92,119 0,41 51,92 92,92l434 0 0 435c0,55 50,92 119,92 41,0 92,-51 92,-92l0 -435 435 0c47,0 92,-46 92,-118 0,-44 -49,-93 -92,-93l-435 0 0 -434c0,-48 -46,-92 -118,-92 -44,0 -93,48 -93,92z"/>
 </g>
</svg>
