<?xml version="1.0" encoding="UTF-8"?>
<!DOCTYPE svg PUBLIC "-//W3C//DTD SVG 1.1//EN" "http://www.w3.org/Graphics/SVG/1.1/DTD/svg11.dtd">
<!-- Creator: CorelDRAW X7 -->
<svg xmlns="http://www.w3.org/2000/svg" xml:space="preserve" width="158.255mm" height="158.025mm" version="1.1" style="shape-rendering:geometricPrecision; text-rendering:geometricPrecision; image-rendering:optimizeQuality; fill-rule:evenodd; clip-rule:evenodd"
viewBox="0 0 2335 2332"
 xmlns:xlink="http://www.w3.org/1999/xlink">
 <defs>
  <style type="text/css">
   <![CDATA[
    .fil0 {fill:#586675}
   ]]>
  </style>
 </defs>
 <g id="Layer_x0020_1">
  <metadata id="CorelCorpID_0Corel-Layer"/>
  <g id="_2504909103264">
   <path class="fil0" d="M321 396c0,87 91,110 137,69l36 -32c14,-12 20,-21 35,-32 161,-125 302,-200 515,-224 306,-36 532,44 765,224 36,27 98,89 125,125 56,72 107,136 145,229 70,170 106,340 81,527 -31,220 -105,395 -256,556 -29,32 -56,63 -95,93 -174,134 -295,194 -524,225 -255,35 -518,-44 -719,-195 -14,-10 -20,-17 -34,-28 -105,-82 -223,-236 -271,-353 -109,-262 -127,-521 -18,-788 7,-16 15,-37 24,-55 18,-36 23,-31 23,-71 0,-85 -111,-101 -152,-47 -22,31 -71,161 -85,201 -29,90 -35,149 -47,239 -5,30 -1,63 -4,95 -16,187 65,444 160,602 39,63 71,111 119,168l96 97c102,86 150,133 286,198 183,88 337,113 548,113 194,0 396,-70 546,-157 71,-41 140,-94 199,-149 49,-45 95,-90 136,-146 144,-193 243,-423 243,-673 0,-234 -23,-338 -108,-537 -6,-16 -15,-32 -22,-45 -62,-107 -86,-149 -176,-246 -75,-81 -95,-98 -187,-167 -50,-38 -81,-51 -128,-80 -111,-66 -339,-132 -503,-132 -225,0 -382,29 -562,120 -132,66 -165,100 -267,186 -27,22 -61,43 -61,90z"/>
   <path class="fil0" d="M1083 617l0 428 -429 0c-54,0 -91,48 -91,117 0,40 51,90 91,90l429 0 0 429c0,54 48,91 116,91 41,0 91,-51 91,-91l0 -429 429 0c47,0 90,-45 90,-116 0,-43 -48,-91 -90,-91l-429 0 0 -428c0,-48 -45,-91 -117,-91 -43,0 -90,48 -90,91z"/>
  </g>
 </g>
</svg>
