<?xml version="1.0" encoding="UTF-8"?>
<!DOCTYPE svg PUBLIC "-//W3C//DTD SVG 1.1//EN" "http://www.w3.org/Graphics/SVG/1.1/DTD/svg11.dtd">
<!-- Creator: CorelDRAW X7 -->
<svg xmlns="http://www.w3.org/2000/svg" xml:space="preserve" width="158.255mm" height="158.025mm" version="1.1" style="shape-rendering:geometricPrecision; text-rendering:geometricPrecision; image-rendering:optimizeQuality; fill-rule:evenodd; clip-rule:evenodd"
viewBox="0 0 4435 4429"
 xmlns:xlink="http://www.w3.org/1999/xlink">
 <defs>
  <style type="text/css">
   <![CDATA[
    .fil0 {fill:black}
   ]]>
  </style>
 </defs>
 <g id="Layer_x0020_1">
  <metadata id="CorelCorpID_0Corel-Layer"/>
  <g id="_2504901496592">
   <path class="fil0" d="M609 751c0,167 174,210 260,131l69 -59c27,-24 38,-40 67,-62 306,-236 573,-379 978,-426 581,-67 1010,84 1454,426 67,52 185,170 237,237 106,139 203,259 275,437 132,322 202,645 153,1000 -58,418 -199,750 -485,1057 -56,60 -106,119 -180,175 -332,256 -561,369 -996,429 -484,66 -985,-85 -1366,-371 -27,-20 -37,-32 -64,-53 -200,-156 -423,-448 -516,-671 -207,-498 -241,-990 -33,-1497 13,-31 29,-69 45,-104 34,-69 43,-60 43,-135 0,-161 -211,-193 -287,-89 -43,58 -136,306 -162,382 -56,170 -66,283 -90,453 -9,58 -2,120 -7,181 -30,355 123,844 305,1144 72,119 134,211 224,319l182 183c195,163 286,254 543,377 350,167 641,214 1042,214 368,0 752,-132 1037,-297 135,-78 265,-179 379,-284 92,-86 179,-172 257,-277 274,-367 462,-803 462,-1278 0,-445 -43,-643 -205,-1021 -12,-29 -28,-60 -42,-85 -118,-203 -163,-283 -334,-468 -142,-153 -180,-185 -355,-317 -95,-71 -154,-97 -244,-151 -210,-125 -643,-251 -955,-251 -428,0 -725,55 -1068,227 -250,126 -312,190 -507,353 -50,43 -116,83 -116,171z"/>
   <path class="fil0" d="M2056 1171l0 813 -813 0c-103,0 -173,93 -173,222 0,77 96,173 173,173l813 0 0 813c0,104 92,173 222,173 77,0 173,-96 173,-173l0 -813 813 0c90,0 173,-86 173,-222 0,-81 -91,-173 -173,-173l-813 0 0 -813c0,-89 -86,-173 -222,-173 -82,0 -173,91 -173,173z"/>
  </g>
 </g>
</svg>
