<?xml version="1.0" encoding="UTF-8"?>
<!DOCTYPE svg PUBLIC "-//W3C//DTD SVG 1.1//EN" "http://www.w3.org/Graphics/SVG/1.1/DTD/svg11.dtd">
<!-- Creator: CorelDRAW X7 -->
<svg xmlns="http://www.w3.org/2000/svg" xml:space="preserve" width="94.4466mm" height="94.4466mm" version="1.1" style="shape-rendering:geometricPrecision; text-rendering:geometricPrecision; image-rendering:optimizeQuality; fill-rule:evenodd; clip-rule:evenodd"
viewBox="0 0 1005 1005"
 xmlns:xlink="http://www.w3.org/1999/xlink">
 <defs>
  <style type="text/css">
   <![CDATA[
    .str0 {stroke:#586675;stroke-width:106.36}
    .fil0 {fill:#586675}
   ]]>
  </style>
 </defs>
 <g id="Layer_x0020_1">
  <metadata id="CorelCorpID_0Corel-Layer"/>
  <path class="fil0 str0" d="M427 119l0 308 -308 0c-39,0 -66,35 -66,85 0,29 36,65 66,65l308 0 0 309c0,39 35,65 85,65 29,0 65,-36 65,-65l0 -309 309 0c34,0 65,-32 65,-84 0,-31 -34,-66 -65,-66l-309 0 0 -308c0,-34 -32,-66 -84,-66 -31,0 -66,35 -66,66z"/>
 </g>
</svg>
