<?xml version="1.0" encoding="UTF-8"?>
<!DOCTYPE svg PUBLIC "-//W3C//DTD SVG 1.1//EN" "http://www.w3.org/Graphics/SVG/1.1/DTD/svg11.dtd">
<!-- Creator: CorelDRAW X7 -->
<svg xmlns="http://www.w3.org/2000/svg" xml:space="preserve" width="83.9345mm" height="85.1072mm" version="1.1" style="shape-rendering:geometricPrecision; text-rendering:geometricPrecision; image-rendering:optimizeQuality; fill-rule:evenodd; clip-rule:evenodd"
viewBox="0 0 429 435"
 xmlns:xlink="http://www.w3.org/1999/xlink">
 <defs>
  <style type="text/css">
   <![CDATA[
    .fil0 {fill:#2C9AC1}
    .fil3 {fill:#7FBA00}
    .fil4 {fill:#F35F36}
    .fil2 {fill:#FEFEFE}
    .fil1 {fill:#FFB901}
   ]]>
  </style>
 </defs>
 <g id="Layer_x0020_1">
  <metadata id="CorelCorpID_0Corel-Layer"/>
  <path class="fil0" d="M4 19l0 0c1,2 2,4 4,5l49 66c1,3 -1,145 -1,158 0,23 0,46 0,69 -1,40 -6,34 37,34 23,0 47,1 70,1 23,0 48,-1 71,0 23,1 47,0 70,0l105 0c17,0 20,0 20,-15 0,-18 -2,-16 -20,-16 -103,0 -207,0 -309,0 -2,0 -4,1 -5,0 -2,0 -3,0 -4,-1 -1,-2 0,-188 0,-213 0,-7 1,-16 0,-23 0,-4 -7,-12 -9,-15 -4,-5 -7,-9 -10,-13 -7,-10 -14,-19 -20,-28l-21 -27 -2 0c-2,2 -9,6 -13,9 -4,3 -8,6 -12,9z"/>
  <polygon class="fil1" points="201,201 164,201 164,167 100,167 100,311 265,311 265,166 201,166 "/>
  <path class="fil0" d="M374 367c-17,3 -32,19 -28,40 3,17 21,31 42,27 17,-3 32,-19 28,-40 -3,-16 -21,-31 -42,-27z"/>
  <path class="fil0" d="M110 367c-17,2 -32,18 -29,39 3,17 20,31 41,28 18,-3 33,-19 30,-40 -3,-17 -21,-31 -42,-27z"/>
  <path class="fil2" d="M0 18c4,-2 9,-6 13,-9 3,-2 10,-6 13,-9l-26 0 0 18z"/>
  <polygon class="fil3" points="359,222 329,222 329,194 277,194 277,311 411,311 411,193 359,193 "/>
  <polygon class="fil4" points="168,85 143,85 143,62 100,62 100,158 211,158 211,61 168,61 "/>
 </g>
</svg>
