<?xml version="1.0" encoding="UTF-8"?>
<!DOCTYPE svg PUBLIC "-//W3C//DTD SVG 1.1//EN" "http://www.w3.org/Graphics/SVG/1.1/DTD/svg11.dtd">
<!-- Creator: CorelDRAW X7 -->
<svg xmlns="http://www.w3.org/2000/svg" xml:space="preserve" width="279.447mm" height="48.2766mm" version="1.1" style="shape-rendering:geometricPrecision; text-rendering:geometricPrecision; image-rendering:optimizeQuality; fill-rule:evenodd; clip-rule:evenodd"
viewBox="0 0 32984 5698"
 xmlns:xlink="http://www.w3.org/1999/xlink">
 <defs>
  <style type="text/css">
   <![CDATA[
    .fil0 {fill:#2C9AC1}
    .fil3 {fill:#7FBA00}
    .fil4 {fill:#F35F36}
    .fil2 {fill:#FEFEFE}
    .fil1 {fill:#FFB901}
    .fil6 {fill:#404040;fill-rule:nonzero}
    .fil5 {fill:#575454;fill-rule:nonzero}
   ]]>
  </style>
 </defs>
 <g id="Layer_x0020_1">
  <metadata id="CorelCorpID_0Corel-Layer"/>
  <path class="fil0" d="M46 241l0 4c16,17 32,43 50,64l626 829c17,44 -5,1849 -8,2011 -7,294 -3,592 -6,887 -3,502 -77,432 474,432 298,0 598,3 896,3 293,0 601,-5 895,3 292,10 601,3 895,3l1336 5c212,0 250,-11 250,-196 -2,-231 -25,-199 -250,-199 -1307,0 -2632,-7 -3936,2 -16,0 -44,1 -61,0 -19,-3 -36,-6 -44,-18 -15,-27 -4,-2388 -4,-2704 0,-90 7,-215 0,-303 -4,-44 -89,-142 -120,-184 -45,-61 -83,-111 -127,-172 -86,-118 -170,-231 -255,-349l-259 -352 -24 0c-34,36 -119,86 -165,119 -52,39 -111,81 -163,115l0 0z"/>
  <polygon class="fil1" points="2554,2561 2086,2561 2082,2125 1276,2123 1272,3951 3374,3951 3376,2114 2552,2112 "/>
  <path class="fil0" d="M4760 4671c-217,41 -411,240 -361,506 39,215 263,392 531,345 216,-36 414,-240 363,-509 -40,-211 -265,-392 -533,-342l0 0z"/>
  <path class="fil0" d="M1401 4662c-220,37 -414,237 -371,499 34,218 260,397 526,355 221,-33 415,-237 372,-503 -36,-215 -262,-392 -527,-351z"/>
  <path class="fil2" d="M0 234c53,-34 112,-76 164,-113 45,-35 130,-85 164,-121l-328 0 0 234z"/>
  <polygon class="fil3" points="4563,2819 4182,2820 4179,2466 3525,2464 3520,3950 5229,3950 5231,2456 4560,2455 "/>
  <polygon class="fil4" points="2133,1078 1818,1080 1816,786 1275,786 1272,2012 2683,2012 2685,779 2132,778 "/>
  <path class="fil5" d="M8573 4430c-347,0 -526,-140 -545,-420l-525 0c15,576 369,867 1070,867 669,0 1019,-256 1050,-774 16,-334 -124,-552 -420,-653 -222,-78 -432,-137 -630,-183 -347,-78 -514,-199 -514,-366 12,-202 152,-307 432,-311 229,0 389,74 478,226 51,101 129,155 242,155l303 0c-31,-548 -354,-821 -976,-821 -654,-4 -985,269 -996,825 0,350 256,591 774,724 191,50 369,97 525,144 163,46 241,132 241,260 4,218 -163,327 -509,327l0 0zm2143 -1537l0 -113 -311 0 0 -326c0,-136 -113,-261 -249,-261l-268 0 0 2249c-4,229 89,350 284,369 194,20 377,20 544,4l0 -393 -159 0c-101,0 -152,-46 -152,-132l0 -1140 54 0c144,0 257,-109 257,-257zm1136 -144c-622,0 -933,354 -933,1070 0,708 311,1066 933,1066 623,0 938,-358 938,-1066 0,-716 -315,-1070 -938,-1070zm0 456c265,0 397,198 397,599 -4,408 -136,618 -401,618 -264,0 -400,-202 -404,-603 0,-408 136,-614 408,-614zm3004 1003l-389 0c-67,0 -125,24 -176,74 -85,97 -190,148 -311,148 -288,4 -432,-202 -432,-611 0,-408 137,-614 409,-614 163,0 272,73 334,214l565 0c-90,-448 -386,-670 -884,-670 -634,12 -949,366 -949,1070 16,708 335,1066 957,1066 479,12 782,-257 876,-677zm540 -2015l-268 0 0 2645 517 0 0 -750c0,-55 28,-90 82,-101 66,0 132,58 198,175l366 676 623 0 -720 -1221 712 -763 -623 0 -638 732 0 -1140c0,-136 -112,-253 -249,-253z"/>
  <path class="fil6" d="M18847 2477l0 2361 509 0 0 -2135 541 2135 552 0 541 -2135 0 2135 510 0 0 -2645 -806 0 -517 2015 -533 -2015 -525 0c-152,0 -272,132 -272,284zm3645 1980c-164,0 -249,-78 -261,-241 0,-152 105,-249 311,-288 152,-31 292,-74 413,-124l0 190c0,292 -175,463 -463,463zm120 -1284c214,0 323,59 335,175 0,113 -113,179 -335,207 -521,50 -879,183 -890,677 0,455 342,684 836,645 556,-39 899,-291 899,-859l0 -701c-12,-381 -300,-568 -868,-568 -475,0 -743,187 -805,568l517 0c27,-97 129,-144 311,-144zm2848 1665l0 -1209c4,-588 -284,-880 -871,-880 -588,0 -883,292 -883,880l0 1209 525 0 0 -1314c4,-214 120,-319 350,-319 229,0 346,105 358,319l0 1058c0,163 85,245 257,256l264 0zm957 -381c-163,0 -249,-78 -260,-241 0,-152 105,-249 311,-288 151,-31 292,-74 412,-124l0 190c0,292 -175,463 -463,463zm121 -1284c214,0 323,59 334,175 0,113 -112,179 -334,207 -522,50 -879,183 -891,677 0,455 342,684 836,645 557,-39 899,-291 899,-859l0 -701c-12,-381 -300,-568 -868,-568 -474,0 -743,187 -805,568l518 0c27,-97 128,-144 311,-144zm2027 1249c-280,0 -421,-198 -432,-595 0,-416 144,-622 439,-622 296,0 440,206 436,622 -15,397 -163,595 -443,595zm-144 455c256,0 455,-101 587,-303 0,214 0,210 0,210 0,319 -140,479 -412,479 -214,0 -335,-70 -370,-218l-572 0c121,435 417,653 883,653 658,-11 985,-272 985,-789l0 -1218c0,-619 -323,-922 -965,-918 -638,11 -957,354 -957,1038 0,708 272,1066 821,1066zm3159 -669l-382 0c-70,0 -128,24 -175,74 -101,97 -214,148 -334,148 -253,0 -389,-159 -409,-475l1331 0c39,-805 -269,-1206 -922,-1206 -627,4 -942,354 -942,1055 0,700 312,1062 934,1081 506,0 786,-241 899,-677zm-899 -1035c222,0 350,140 381,413l-774 0c39,-273 171,-413 393,-413zm1171 1665l525 0 0 -1069c0,-300 144,-452 432,-452l175 0 0 -537 -74 0c-688,0 -1042,331 -1058,996l0 1062z"/>
 </g>
</svg>
