<?xml version="1.0" encoding="UTF-8"?>
<!DOCTYPE svg PUBLIC "-//W3C//DTD SVG 1.1//EN" "http://www.w3.org/Graphics/SVG/1.1/DTD/svg11.dtd">
<!-- Creator: CorelDRAW X7 -->
<svg xmlns="http://www.w3.org/2000/svg" xml:space="preserve" width="7.3182mm" height="7.772mm" version="1.1" style="shape-rendering:geometricPrecision; text-rendering:geometricPrecision; image-rendering:optimizeQuality; fill-rule:evenodd; clip-rule:evenodd"
viewBox="0 0 70 75"
 xmlns:xlink="http://www.w3.org/1999/xlink">
 <defs>
  <style type="text/css">
   <![CDATA[
    .fil0 {fill:black}
    .fil1 {fill:white}
   ]]>
  </style>
 </defs>
 <g id="Layer_x0020_1">
  <metadata id="CorelCorpID_0Corel-Layer"/>
  <rect class="fil0" width="70.3772" height="74.7413"/>
  <path class="fil1" d="M15 47c1,0 1,-1 2,-2 0,0 0,0 0,0l1 0c0,0 0,-1 0,-1 0,0 0,0 0,0l2 -2c0,0 0,0 0,0 0,0 0,0 0,0 0,0 0,0 0,0 0,0 1,0 1,0l3 -3c0,0 0,-1 0,-1l2 -1c0,0 0,0 0,0 0,-1 1,-1 1,-2l0 31 15 0 0 -31c1,1 1,1 1,1l4 4c0,0 0,0 0,0l2 2c0,0 0,0 0,0 0,0 0,0 0,0 0,0 0,0 0,0 0,0 0,0 0,0 0,1 1,1 1,1 0,0 0,0 0,0 0,0 0,0 0,0 0,0 0,0 0,0 0,0 0,1 0,1l2 2c2,1 1,1 4,-2 1,0 1,-1 2,-1 1,-1 2,-2 3,-3 1,-1 3,-3 3,-3 0,-1 -1,-1 -1,-2l-2 -2c0,0 0,0 0,0 0,0 0,0 0,0l-2 -1c0,0 0,-1 0,-1 0,0 0,0 0,0l-13 -12c0,0 0,-1 0,-1 0,0 0,0 -1,0l-3 -4c-1,0 -1,0 -1,0l-1 -2c0,0 0,0 0,0l-2 -2c0,0 -1,0 -1,0l-1 -1c0,0 0,-1 0,-1l-1 0c-1,-1 -1,0 -2,1l-16 15c0,0 0,0 0,0l-6 7c-1,1 -2,1 -2,2l-2 2c0,0 0,0 0,0 -2,2 -2,1 0,3l7 7c0,0 0,0 0,0 1,1 1,1 1,2l0 0z"/>
 </g>
</svg>
