<?xml version="1.0" encoding="UTF-8"?>
<!DOCTYPE svg PUBLIC "-//W3C//DTD SVG 1.1//EN" "http://www.w3.org/Graphics/SVG/1.1/DTD/svg11.dtd">
<!-- Creator: CorelDRAW X7 -->
<svg xmlns="http://www.w3.org/2000/svg" xml:space="preserve" width="145.697mm" height="135.194mm" version="1.1" style="shape-rendering:geometricPrecision; text-rendering:geometricPrecision; image-rendering:optimizeQuality; fill-rule:evenodd; clip-rule:evenodd"
viewBox="0 0 14499 13454"
 xmlns:xlink="http://www.w3.org/1999/xlink">
 <defs>
  <style type="text/css">
   <![CDATA[
    .fil0 {fill:#020201}
   ]]>
  </style>
 </defs>
 <g id="Layer_x0020_1">
  <metadata id="CorelCorpID_0Corel-Layer"/>
  <path class="fil0" d="M4283 2922c0,1298 391,2643 831,3522 65,131 109,220 175,352 323,641 548,475 333,1116 -106,319 -257,403 -556,532 -1132,487 -2675,739 -3853,1624 -853,640 -1213,1989 -1213,3386l14499 0c0,-792 -75,-1321 -311,-2041 -159,-484 -498,-995 -862,-1280 -208,-163 -418,-270 -646,-407 -219,-133 -486,-247 -734,-355 -706,-307 -2290,-766 -2729,-1027 -264,-156 -334,-313 -401,-687 -92,-507 43,-341 440,-1131 670,-1330 1297,-3821 445,-5371 -142,-258 -305,-407 -511,-577 -909,-751 -3954,-1100 -4710,1066 -110,313 -197,873 -197,1278z"/>
 </g>
</svg>
